<svg width="474" height="520" viewBox="0 0 474 520" fill="none" xmlns="http://www.w3.org/2000/svg">
<path d="M114.5 205V220L69 234.5C190.5 296.5 334.5 282 414.5 241.5L394 212C534.5 274.5 333.5 315.5 234.5 315.5C121.786 315.5 88 287.667 66 278C-15.2 237.6 64.5 212.5 114.5 205Z" fill="#FDD912" fill-opacity="0.4"/>
<path d="M114.5 205V220L69 234.5C190.5 296.5 334.5 282 414.5 241.5L394 212C534.5 274.5 333.5 315.5 234.5 315.5C121.786 315.5 88 287.667 66 278C-15.2 237.6 64.5 212.5 114.5 205Z" fill="#F3A553" fill-opacity="0.6"/>
<path d="M226.5 309.5L198 344C524 357.2 520.5 219 393.5 212.5C532 268 332.5 325.5 226.5 309.5Z" fill="#B32B5B" fill-opacity="0.2"/>
<path d="M226.5 309.5L198 344C524 357.2 520.5 219 393.5 212.5C532 268 332.5 325.5 226.5 309.5Z" fill="#F3A553" fill-opacity="0.8"/>
<path d="M5 282.5C-21.4 232.9 66.3333 206.167 113.5 199L115.5 198.5L115 204L113.5 204.5C-74.9 240.1 97 309.5 226.5 309.5L198 344.5C144.667 344.5 31.4 332.1 5 282.5Z" fill="#341453"/>
<path d="M5 282.5C-21.4 232.9 66.3333 206.167 113.5 199L115.5 198.5L115 204L113.5 204.5C-74.9 240.1 97 309.5 226.5 309.5L198 344.5C144.667 344.5 31.4 332.1 5 282.5Z" fill="#342359"/>
<path d="M127 339.5C182.5 343.333 300.5 348.7 328.5 339.5C321 396 185 446.5 127 339.5Z" fill="#FF05AA" fill-opacity="0.6"/>
<path d="M127 339.5C182.5 343.333 300.5 348.7 328.5 339.5C321 396 185 446.5 127 339.5Z" fill="#E69836" fill-opacity="0.4"/>
<path d="M324.412 0.625308C417.03 11.0262 441.246 94.292 441.412 141.125C417.012 99.9253 361.412 55.9208 344.412 58.6253C337.079 59.792 321.512 70.7253 317.912 105.125C314.312 139.525 334.079 188.459 344.412 208.625C350.012 208.225 379.079 211.125 392.912 212.625L403.912 225.625L415.412 242.125C219.912 321.125 75.9123 236.625 70.4123 234.625C66.0123 233.025 97.9123 224.292 114.412 220.125V202.125C135.412 114.125 230.912 -9.87465 324.412 0.625308Z" fill="#341453"/>
<path d="M69.58 505.34C66.1267 506.833 62.1133 507.907 57.54 508.56C52.9667 509.213 48.72 509.54 44.8 509.54C32.1067 509.54 22.1667 506.227 14.98 499.6C7.79333 492.973 4.2 482.8 4.2 469.08C4.2 455.08 7.98 444.627 15.54 437.72C23.1 430.72 33.74 427.22 47.46 427.22C53.9933 427.22 60.8067 428.107 67.9 429.88C67.9 431.747 67.7133 434.547 67.34 438.28C66.9667 441.92 66.5933 444.487 66.22 445.98H57.4C50.96 445.98 45.8733 446.12 42.14 446.4C38.5 446.587 36.3067 447.007 35.56 447.66C34.16 448.967 33.0867 451.627 32.34 455.64C31.5933 459.56 31.22 463.34 31.22 466.98C31.22 473.327 32.0133 478.227 33.6 481.68C35.1867 485.04 37.1933 487.28 39.62 488.4C41.9533 489.52 45.8267 490.08 51.24 490.08C55.5333 490.08 61.1333 489.707 68.04 488.96L69.58 505.34ZM139.817 447.66C140.657 448.687 141.264 451.253 141.637 455.36C142.104 459.467 142.337 465.72 142.337 474.12V508H118.397V474.4C118.397 474.027 118.397 472.207 118.397 468.94C118.397 465.58 118.164 463.527 117.697 462.78C117.417 462.407 116.717 462.127 115.597 461.94C114.571 461.753 113.357 461.66 111.957 461.66L109.577 461.8C106.964 461.893 104.257 462.5 101.457 463.62V508H77.5173V424L101.457 423.02V439.4C101.457 446.12 101.224 450.6 100.757 452.84L100.897 452.98C107.244 445.793 114.851 442.2 123.717 442.2C127.077 442.2 130.204 442.667 133.097 443.6C136.084 444.533 138.324 445.887 139.817 447.66ZM191.756 508L189.516 499.18C185.223 506.18 179.25 509.68 171.596 509.68C165.343 509.68 160.21 507.953 156.196 504.5C152.276 500.953 150.316 496.007 150.316 489.66C150.316 485.74 151.436 482.333 153.676 479.44C156.01 476.453 159.183 474.353 163.196 473.14C168.423 471.647 176.496 470.807 187.416 470.62C187.416 464.46 187.136 461.193 186.576 460.82C186.11 460.447 184.616 460.26 182.096 460.26C180.51 460.26 178.316 460.353 175.516 460.54C171.036 460.727 164.97 461.24 157.316 462.08C156.57 457.04 156.01 451.627 155.636 445.84C160.583 444.813 165.763 443.973 171.176 443.32C176.59 442.573 181.443 442.2 185.736 442.2C193.203 442.2 198.803 443.46 202.536 445.98C206.27 448.407 208.696 451.627 209.816 455.64C210.936 459.653 211.45 464.74 211.356 470.9L211.216 491.48L211.636 508H191.756ZM179.716 494C182.143 494 184.71 493.533 187.416 492.6V482.24H186.296C179.39 482.24 175.563 482.613 174.816 483.36C174.35 483.827 173.976 484.527 173.696 485.46C173.51 486.393 173.416 487.28 173.416 488.12C173.416 490.36 173.93 491.9 174.956 492.74C175.983 493.58 177.57 494 179.716 494ZM270.466 508H238.966L218.386 428.2H245.266L255.906 486.86H256.606L267.946 428.2H294.266L305.886 486.86H306.306L317.086 428.2H342.846L322.266 508H290.906L281.386 457.04H280.546L270.466 508ZM363.005 435.62C359.831 435.62 357.078 434.547 354.745 432.4C352.505 430.253 351.385 427.687 351.385 424.7C351.385 421.713 352.505 419.147 354.745 417C357.078 414.853 359.831 413.78 363.005 413.78C366.178 413.78 368.885 414.853 371.125 417C373.365 419.147 374.485 421.713 374.485 424.7C374.485 427.687 373.365 430.253 371.125 432.4C368.885 434.547 366.178 435.62 363.005 435.62ZM350.965 443.6H374.905V508H350.965V443.6ZM442.635 492.32V508H384.815V491.9L415.895 458.86H385.655V443.6H441.935V459.56L410.995 492.32H442.635Z" fill="url(#paint0_linear_7_4)"/>
<path d="M69.58 505.34C66.1267 506.833 62.1133 507.907 57.54 508.56C52.9667 509.213 48.72 509.54 44.8 509.54C32.1067 509.54 22.1667 506.227 14.98 499.6C7.79333 492.973 4.2 482.8 4.2 469.08C4.2 455.08 7.98 444.627 15.54 437.72C23.1 430.72 33.74 427.22 47.46 427.22C53.9933 427.22 60.8067 428.107 67.9 429.88C67.9 431.747 67.7133 434.547 67.34 438.28C66.9667 441.92 66.5933 444.487 66.22 445.98H57.4C50.96 445.98 45.8733 446.12 42.14 446.4C38.5 446.587 36.3067 447.007 35.56 447.66C34.16 448.967 33.0867 451.627 32.34 455.64C31.5933 459.56 31.22 463.34 31.22 466.98C31.22 473.327 32.0133 478.227 33.6 481.68C35.1867 485.04 37.1933 487.28 39.62 488.4C41.9533 489.52 45.8267 490.08 51.24 490.08C55.5333 490.08 61.1333 489.707 68.04 488.96L69.58 505.34ZM139.817 447.66C140.657 448.687 141.264 451.253 141.637 455.36C142.104 459.467 142.337 465.72 142.337 474.12V508H118.397V474.4C118.397 474.027 118.397 472.207 118.397 468.94C118.397 465.58 118.164 463.527 117.697 462.78C117.417 462.407 116.717 462.127 115.597 461.94C114.571 461.753 113.357 461.66 111.957 461.66L109.577 461.8C106.964 461.893 104.257 462.5 101.457 463.62V508H77.5173V424L101.457 423.02V439.4C101.457 446.12 101.224 450.6 100.757 452.84L100.897 452.98C107.244 445.793 114.851 442.2 123.717 442.2C127.077 442.2 130.204 442.667 133.097 443.6C136.084 444.533 138.324 445.887 139.817 447.66ZM191.756 508L189.516 499.18C185.223 506.18 179.25 509.68 171.596 509.68C165.343 509.68 160.21 507.953 156.196 504.5C152.276 500.953 150.316 496.007 150.316 489.66C150.316 485.74 151.436 482.333 153.676 479.44C156.01 476.453 159.183 474.353 163.196 473.14C168.423 471.647 176.496 470.807 187.416 470.62C187.416 464.46 187.136 461.193 186.576 460.82C186.11 460.447 184.616 460.26 182.096 460.26C180.51 460.26 178.316 460.353 175.516 460.54C171.036 460.727 164.97 461.24 157.316 462.08C156.57 457.04 156.01 451.627 155.636 445.84C160.583 444.813 165.763 443.973 171.176 443.32C176.59 442.573 181.443 442.2 185.736 442.2C193.203 442.2 198.803 443.46 202.536 445.98C206.27 448.407 208.696 451.627 209.816 455.64C210.936 459.653 211.45 464.74 211.356 470.9L211.216 491.48L211.636 508H191.756ZM179.716 494C182.143 494 184.71 493.533 187.416 492.6V482.24H186.296C179.39 482.24 175.563 482.613 174.816 483.36C174.35 483.827 173.976 484.527 173.696 485.46C173.51 486.393 173.416 487.28 173.416 488.12C173.416 490.36 173.93 491.9 174.956 492.74C175.983 493.58 177.57 494 179.716 494ZM270.466 508H238.966L218.386 428.2H245.266L255.906 486.86H256.606L267.946 428.2H294.266L305.886 486.86H306.306L317.086 428.2H342.846L322.266 508H290.906L281.386 457.04H280.546L270.466 508ZM363.005 435.62C359.831 435.62 357.078 434.547 354.745 432.4C352.505 430.253 351.385 427.687 351.385 424.7C351.385 421.713 352.505 419.147 354.745 417C357.078 414.853 359.831 413.78 363.005 413.78C366.178 413.78 368.885 414.853 371.125 417C373.365 419.147 374.485 421.713 374.485 424.7C374.485 427.687 373.365 430.253 371.125 432.4C368.885 434.547 366.178 435.62 363.005 435.62ZM350.965 443.6H374.905V508H350.965V443.6ZM442.635 492.32V508H384.815V491.9L415.895 458.86H385.655V443.6H441.935V459.56L410.995 492.32H442.635Z" fill="black" fill-opacity="0.2"/>
<defs>
<linearGradient id="paint0_linear_7_4" x1="41.6243" y1="398.292" x2="413.992" y2="402.094" gradientUnits="userSpaceOnUse">
<stop stop-color="#391A53"/>
<stop offset="0.123936" stop-color="#5F2C64"/>
<stop offset="0.223962" stop-color="#42235C"/>
<stop offset="0.374301" stop-color="#02EFA0"/>
<stop offset="0.502841" stop-color="#642866"/>
<stop offset="0.6246" stop-color="#371854"/>
<stop offset="0.769395" stop-color="#FD9835"/>
</linearGradient>
</defs>
</svg>
